<svg xmlns="http://www.w3.org/2000/svg" viewBox="0 0 59.709 69.262">
    <style type="text/css">

        .st0{clip-path:url(#SVGID_2_);}
        .st1{clip-path:url(#SVGID_4_);}

    </style>
    <defs>
        <rect width="59.709" height="69.262"/>
    </defs>
    <clipPath>
        <use xlink:href="#SVGID_1_"/>
    </clipPath>
    <path class="st0" d="M1.193 62.536v-55.81l28.663-5.508 28.662 5.508v55.81l-28.664 5.509L1.193 62.536zM29.854 0l-0.111 0.02 -29.743 5.717v57.786l29.854 5.738 29.855-5.738V5.737L29.854 0z"/>
    <path class="st0" d="M3.334 60.312V8.951l26.441-5.083 0.082-0.015 26.517 5.098v51.361l-26.517 5.099L3.334 60.312zM4.17 9.643v49.979l25.687 4.936 25.682-4.936V9.643l-25.682-4.937L4.17 9.643z"/>
    <g class="st0">
        <defs>
            <rect width="59.709" height="69.262"/>
        </defs>
        <clipPath>
            <use xlink:href="#SVGID_3_"/>
        </clipPath>
        <path class="st1" d="M33.507 52.834c0.007-0.685-0.542-1.246-1.228-1.254 -0.474-0.005-0.884 0.26-1.097 0.65l-0.001-0.008 -0.034 0.069c-0.008 0.019-0.017 0.037-0.025 0.057l-1.17 2.516 -0.311 0.222 -0.309-0.222 -1.17-2.516c-0.01-0.02-0.018-0.038-0.027-0.057l-0.033-0.069v0.008c-0.214-0.39-0.622-0.655-1.098-0.65 -0.686 0.008-1.236 0.569-1.227 1.254 0.006 0.684 0.567 1.234 1.254 1.228 0.398-0.003 0.748-0.201 0.971-0.497 0.199 0.482 0.643 1.508 0.991 1.867l-0.016 0.007 -2.15 3.53c-0.555 1.136 0.037 1.975 0.037 1.975l2.558-4.661c0 0 0.085-0.082 0.219-0.214 0.133 0.132 0.218 0.214 0.218 0.214l2.56 4.661c0 0 0.593-0.839 0.038-1.975l-2.15-3.53 -0.016-0.007c0.347-0.359 0.792-1.385 0.99-1.867 0.224 0.296 0.573 0.494 0.973 0.497C32.94 54.068 33.503 53.518 33.507 52.834M27.817 52.812c0.004 0.442-0.35 0.805-0.793 0.809 -0.441 0.005-0.805-0.351-0.808-0.791 -0.004-0.441 0.35-0.805 0.79-0.81C27.45 52.016 27.812 52.371 27.817 52.812M33.067 52.83c-0.004 0.44-0.365 0.796-0.809 0.791 -0.441-0.004-0.796-0.367-0.792-0.809 0.005-0.441 0.367-0.796 0.81-0.792C32.717 52.025 33.072 52.389 33.067 52.83"/>
        <path class="st1" d="M25.777 16.43c-0.007 0.684 0.541 1.245 1.226 1.252 0.475 0.006 0.884-0.26 1.099-0.649l0.002 0.009 0.032-0.07c0.008-0.019 0.017-0.037 0.025-0.056l1.17-2.517 0.31-0.222 0.31 0.222 1.171 2.517c0.01 0.019 0.017 0.037 0.025 0.056l0.035 0.07v-0.009c0.213 0.389 0.623 0.655 1.096 0.649 0.689-0.007 1.238-0.568 1.229-1.252 -0.006-0.685-0.567-1.234-1.253-1.227 -0.4 0.002-0.75 0.2-0.974 0.496 -0.198-0.483-0.641-1.509-0.99-1.868l0.017-0.005 2.149-3.53c0.556-1.138-0.035-1.977-0.035-1.977l-2.559 4.661c0 0-0.086 0.082-0.219 0.215 -0.135-0.133-0.219-0.215-0.219-0.215l-2.561-4.661c0 0-0.591 0.839-0.035 1.977l2.149 3.53 0.015 0.005c-0.347 0.359-0.792 1.385-0.989 1.868 -0.225-0.296-0.574-0.494-0.975-0.496C26.344 15.196 25.781 15.745 25.777 16.43M31.466 16.451c-0.005-0.443 0.351-0.804 0.792-0.808 0.443-0.006 0.805 0.349 0.811 0.79 0.003 0.443-0.352 0.806-0.793 0.811C31.834 17.247 31.471 16.893 31.466 16.451M26.216 16.433c0.005-0.441 0.365-0.796 0.808-0.79 0.443 0.004 0.796 0.365 0.793 0.808 -0.004 0.442-0.368 0.796-0.809 0.793C26.566 17.239 26.211 16.876 26.216 16.433"/>
        <path class="st1" d="M17.249 28.203l-0.246 0.453c-0.348 0.696-1.221 1.239-1.566 1.204 -0.04 0-0.067-0.003-0.086-0.008 -0.755-0.205-0.924-0.566-0.962-1.25 -0.005-0.657 0.319-1.524 0.789-2.175 0.196-0.281 0.417-0.509 0.633-0.682 0.307 0.115 0.594 0.376 0.831 0.835l0.847-0.237 0.031 0.056 3.183-0.889 -0.19-0.551c-0.667-1.998-2.214-2.969-3.808-2.948 -2.066 0.018-4.22 1.436-5.275 3.597 -0.682 0.869-1.154 1.946-1.256 3.145 -0.295 3.545 2.992 5.438 5.633 4.355 1.605-0.128 3.213-1.12 4.102-3.068l0.228-0.496 -0.496-0.23L17.249 28.203M15.426 32.038c-1.829-0.013-3.553-1.364-3.561-3.674 0-0.128 0.004-0.257 0.019-0.388 0.208-2.777 2.732-4.869 4.787-4.869h0.034c1.038 0.019 1.942 0.452 2.543 1.67l-1.192 0.335c-0.38-0.522-0.908-0.829-1.468-0.819 -1.841 0.136-3.22 2.395-3.294 4.309 -0.038 1 0.57 2.065 1.816 2.318 0.112 0.026 0.222 0.035 0.327 0.035 0.85-0.029 1.669-0.57 2.246-1.343l0.976 0.454C17.833 31.464 16.618 32.031 15.426 32.038"/>
        <path class="st1" d="M26.855 22.357l-0.075 0.469c-0.05 0.322-0.104 0.616-0.163 0.926l-0.457-0.009c-0.125 0.758-0.247 1.355-0.429 2.375l-0.892-0.012c0.251-1.818 0.358-2.526 0.447-3.36l0.063-0.588 -3.535-0.125 -0.066 0.499c-0.037 0.3-0.074 0.61-0.112 0.915l-0.504-0.018c-0.384 3.054-0.784 6.277-1.114 9.561l2.443 0.09c0.01-0.104 0.025-0.215 0.036-0.322l1.613 0.062 0.056-0.51c0.086-0.769 0.185-1.584 0.277-2.426l0.528 0.023c-0.067 0.654-0.208 1.715-0.415 3.18l2.688-0.03c0.007-0.074 0.017-0.17 0.028-0.268l1.636-0.017 0.043-0.494c0.066-0.728 0.345-2.767 0.511-3.947 0.243-1.722 0.456-3.481 0.641-5.316l0.058-0.59L26.855 22.357M28.376 28.179c-0.14 0.99-0.354 2.557-0.463 3.508l-1.563 0.017c0.157-1.147 0.266-2.001 0.327-2.569l0.059-0.578 -3.243-0.139 -0.05 0.516c-0.094 0.945-0.207 1.864-0.308 2.752l-1.354-0.051c0.304-2.897 0.652-5.746 0.992-8.469l1.354 0.049c-0.088 0.711-0.215 1.568-0.46 3.356l-0.086 0.614 3.537 0.048 0.076-0.465c0.276-1.678 0.439-2.448 0.587-3.296l1.17 0.024C28.783 25.104 28.591 26.656 28.376 28.179"/>
        <path class="st1" d="M45.96 24.393c-0.415-0.208-0.837-0.242-1.166-0.265l-0.506-0.028 -0.483 3.552 0.597 0.032c0.008 0 0.05 0.003 0.12 0.003 0.227-0.004 0.702-0.021 1.2-0.263 0.499-0.227 1.013-0.802 1.03-1.632v-0.081C46.773 25.091 46.383 24.583 45.96 24.393M49.545 25.145c-0.05-1.38-0.869-2.299-1.814-2.748 -0.946-0.47-2.024-0.595-2.891-0.645l-0.015-0.002 -2.831-0.07 -0.084 0.459c-0.05 0.26-0.108 0.58-0.174 0.939l-0.449-0.01c-0.334 1.78-1.101 6.143-1.745 10.246l2.993-0.025c0.012-0.099 0.022-0.188 0.032-0.271l1.62-0.012 0.053-0.481c0.108-0.911 0.121-1.035 0.277-2.363 0.26-0.053 0.513-0.119 0.753-0.207 0.978-0.122 1.898-0.438 2.648-1.006 0.997-0.748 1.642-1.96 1.635-3.515C49.553 25.334 49.548 25.238 49.545 25.145M44.311 28.923c-0.086 0-0.166 0-0.245-0.003l-0.501-0.015 -0.061 0.498c-0.19 1.6-0.222 1.892-0.295 2.513l-1.864 0.016c0.57-3.581 1.211-7.256 1.556-9.134l1.88 0.048c0.801 0.042 1.757 0.175 2.461 0.529 0.703 0.371 1.147 0.84 1.209 1.815 0.005 0.08 0.006 0.166 0.006 0.244C48.435 27.902 46.648 28.874 44.311 28.923"/>
        <path class="st1" d="M45.067 26.51c0.06-0.02 0.119-0.041 0.172-0.069 0.236-0.137 0.384-0.245 0.419-0.669v-0.061c-0.023-0.251-0.048-0.242-0.196-0.345 -0.061-0.031-0.138-0.057-0.229-0.078L45.067 26.51"/>
        <path class="st1" d="M39.947 24.754h-0.001c-0.501-2.044-2.023-3.032-3.582-3.003 -1.488 0.006-3.005 0.759-4.098 1.92 -0.512 0.545-0.908 1.131-1.206 1.736 -2.916 3.813-0.558 9.088 3.557 7.459 0.812-0.067 1.673-0.364 2.563-0.948 1.725-1.153 2.917-3.532 2.933-5.803C40.113 25.653 40.059 25.195 39.947 24.754M36.581 31.003c-0.874 0.57-1.646 0.795-2.291 0.795 -1.653-0.004-2.801-1.506-2.823-3.525 0-1.257 0.48-2.653 1.602-3.855 0.887-0.958 2.183-1.571 3.277-1.571h0.018c1.143 0.029 2.063 0.535 2.522 2.184v-0.002c0.085 0.343 0.131 0.71 0.131 1.086C39.032 27.988 37.914 30.147 36.581 31.003M35.875 24.349c-0.772 0.01-1.482 0.425-2.033 1.004 -0.763 0.809-1.103 1.81-1.103 2.718 0 1.17 0.644 2.393 1.938 2.41 0.454 0 0.928-0.161 1.404-0.466v-0.004c0.972-0.661 1.614-1.996 1.632-3.305 0-0.165-0.008-0.329-0.034-0.495C37.544 25.057 36.745 24.316 35.875 24.349M35.729 28.896c-0.079 0.079-0.161 0.148-0.24 0.195 -0.346 0.226-0.614 0.292-0.807 0.292 -0.445 0-0.82-0.436-0.846-1.314 0-0.633 0.247-1.374 0.809-1.966 0.122-0.131 0.256-0.239 0.394-0.334 0.453 0.125 0.818 0.535 0.942 1.352C36.069 27.689 35.958 28.324 35.729 28.896"/>
        <path class="st1" d="M17.249 42.371l-0.246 0.453c-0.348 0.697-1.221 1.24-1.566 1.205 -0.04 0-0.067-0.004-0.086-0.008 -0.755-0.207-0.924-0.568-0.962-1.251 -0.005-0.657 0.319-1.524 0.789-2.175 0.196-0.281 0.417-0.509 0.633-0.682 0.307 0.115 0.594 0.378 0.831 0.833l0.847-0.235 0.031 0.055 3.183-0.888 -0.19-0.551c-0.667-1.997-2.214-2.967-3.808-2.949 -2.066 0.019-4.22 1.437-5.275 3.598 -0.682 0.868-1.154 1.946-1.256 3.145 -0.295 3.544 2.992 5.438 5.633 4.356 1.605-0.13 3.213-1.119 4.102-3.069l0.228-0.495 -0.496-0.231L17.249 42.371M15.426 46.206c-1.829-0.013-3.553-1.364-3.561-3.674 0-0.128 0.004-0.257 0.019-0.388 0.208-2.777 2.732-4.869 4.787-4.869h0.034c1.038 0.02 1.942 0.453 2.543 1.671l-1.192 0.335c-0.38-0.523-0.908-0.828-1.468-0.82 -1.841 0.136-3.22 2.396-3.294 4.309 -0.038 1 0.57 2.064 1.816 2.318 0.112 0.025 0.222 0.035 0.327 0.035 0.85-0.029 1.669-0.57 2.246-1.344l0.976 0.455C17.833 45.632 16.618 46.199 15.426 46.206"/>
        <path class="st1" d="M26.855 36.525l-0.075 0.469c-0.05 0.321-0.104 0.616-0.163 0.928l-0.457-0.01c-0.125 0.758-0.247 1.353-0.429 2.375l-0.892-0.013c0.251-1.818 0.358-2.526 0.447-3.36l0.063-0.588 -3.535-0.125 -0.066 0.499c-0.037 0.3-0.074 0.611-0.112 0.914l-0.504-0.017c-0.384 3.054-0.784 6.278-1.114 9.56l2.443 0.091c0.01-0.105 0.025-0.216 0.036-0.322l1.613 0.063 0.056-0.51c0.086-0.769 0.185-1.584 0.277-2.426l0.528 0.022c-0.067 0.654-0.208 1.716-0.415 3.18l2.688-0.03c0.007-0.074 0.017-0.17 0.028-0.268l1.636-0.017 0.043-0.492c0.066-0.729 0.345-2.768 0.511-3.948 0.243-1.722 0.456-3.482 0.641-5.316l0.058-0.59L26.855 36.525M28.376 42.347c-0.14 0.991-0.354 2.556-0.463 3.509l-1.563 0.017c0.157-1.146 0.266-2.003 0.327-2.57l0.059-0.578 -3.243-0.139 -0.05 0.516c-0.094 0.945-0.207 1.865-0.308 2.753l-1.354-0.051c0.304-2.897 0.652-5.747 0.992-8.47l1.354 0.049c-0.088 0.711-0.215 1.568-0.46 3.356l-0.086 0.615 3.537 0.046 0.076-0.464c0.276-1.678 0.439-2.448 0.587-3.297l1.17 0.025C28.783 39.272 28.591 40.825 28.376 42.347"/>
        <path class="st1" d="M45.96 38.56c-0.415-0.206-0.837-0.241-1.166-0.263l-0.506-0.03 -0.483 3.554 0.597 0.031c0.008 0 0.05 0.004 0.12 0.004 0.227-0.006 0.702-0.022 1.2-0.264 0.499-0.227 1.013-0.801 1.03-1.632v-0.081C46.773 39.26 46.383 38.75 45.96 38.56M49.545 39.313c-0.05-1.379-0.869-2.299-1.814-2.748 -0.946-0.469-2.024-0.596-2.891-0.645l-0.015-0.002 -2.831-0.07 -0.084 0.459c-0.05 0.26-0.108 0.58-0.174 0.939l-0.449-0.009c-0.334 1.779-1.101 6.144-1.745 10.246l2.993-0.026c0.012-0.099 0.022-0.187 0.032-0.271l1.62-0.012 0.053-0.482c0.108-0.909 0.121-1.034 0.277-2.362 0.26-0.053 0.513-0.119 0.753-0.206 0.978-0.122 1.898-0.439 2.648-1.008 0.997-0.747 1.642-1.959 1.635-3.512C49.553 39.503 49.548 39.406 49.545 39.313M44.311 43.092c-0.086 0-0.166 0-0.245-0.003l-0.501-0.016 -0.061 0.498c-0.19 1.6-0.222 1.892-0.295 2.514l-1.864 0.015c0.57-3.582 1.211-7.255 1.556-9.133l1.88 0.047c0.801 0.043 1.757 0.176 2.461 0.529 0.703 0.371 1.147 0.84 1.209 1.814 0.005 0.083 0.006 0.167 0.006 0.247C48.435 42.071 46.648 43.043 44.311 43.092"/>
        <path class="st1" d="M45.067 40.678c0.06-0.02 0.119-0.041 0.172-0.068 0.236-0.138 0.384-0.247 0.419-0.67v-0.06c-0.023-0.252-0.048-0.243-0.196-0.345 -0.061-0.031-0.138-0.058-0.229-0.08L45.067 40.678"/>
        <path class="st1" d="M39.947 38.922h-0.001c-0.501-2.043-2.023-3.031-3.582-3.002 -1.488 0.006-3.005 0.757-4.098 1.918 -0.512 0.545-0.908 1.133-1.206 1.736 -2.916 3.815-0.558 9.09 3.557 7.46 0.812-0.068 1.673-0.366 2.563-0.946 1.725-1.154 2.917-3.533 2.933-5.806C40.113 39.82 40.059 39.364 39.947 38.922M36.581 45.171c-0.874 0.571-1.646 0.794-2.291 0.794 -1.653-0.004-2.801-1.505-2.823-3.523 0-1.258 0.48-2.654 1.602-3.855 0.887-0.958 2.183-1.571 3.277-1.571h0.018c1.143 0.028 2.063 0.536 2.522 2.183v-0.001c0.085 0.342 0.131 0.708 0.131 1.084C39.032 42.157 37.914 44.315 36.581 45.171M35.875 38.516c-0.772 0.01-1.482 0.427-2.033 1.005 -0.763 0.808-1.103 1.812-1.103 2.718 0 1.17 0.644 2.394 1.938 2.412 0.454 0 0.928-0.162 1.404-0.469v-0.003c0.972-0.661 1.614-1.996 1.632-3.305 0-0.165-0.008-0.329-0.034-0.495C37.544 39.223 36.745 38.483 35.875 38.516M35.729 43.063c-0.079 0.08-0.161 0.149-0.24 0.197 -0.346 0.225-0.614 0.291-0.807 0.291 -0.445 0-0.82-0.437-0.846-1.312 0-0.634 0.247-1.375 0.809-1.967 0.122-0.133 0.256-0.239 0.394-0.334 0.453 0.125 0.818 0.533 0.942 1.35C36.069 41.858 35.958 42.491 35.729 43.063"/>
    </g>
</svg>
