<svg xmlns="http://www.w3.org/2000/svg" viewBox="0 0 320 100"><defs><style>.a{fill:#ed1c24;}.b{fill:#0060a8;}.c{fill:#40b206;}.d{fill:#fbfdfd;}</style></defs><path class="a" d="M20,0h80a0,0,0,0,1,0,0V80a20,20,0,0,1-20,20H0a0,0,0,0,1,0,0V20A20,20,0,0,1,20,0Z"/><path class="b" d="M130,0h80a0,0,0,0,1,0,0V80a20,20,0,0,1-20,20H110a0,0,0,0,1,0,0V20A20,20,0,0,1,130,0Z"/><path class="c" d="M240,0h80a0,0,0,0,1,0,0V80a20,20,0,0,1-20,20H220a0,0,0,0,1,0,0V20A20,20,0,0,1,240,0Z"/><path class="d" d="M64,74.45l-.85-19.12a191.38,191.38,0,0,1-.14-20L55.5,69.3H44.57l-8-33.94a171.58,171.58,0,0,1,.21,20.11l-.84,19H24.6l3.67-48.9h14.6l7.34,33.16,6.85-33.16H71.73l3.67,48.9Z"/><path class="d" d="M166,74.45l-6.07-37.33-6.42,37.33H138.83l-8-48.9h11.57l4.87,40.15L154,25.55h12.14l6.35,40.15,5.71-40.15h11L181,74.45Z"/><path class="d" d="M287.64,30.63l-5.43,6.28a16.07,16.07,0,0,0-10.66-4.09c-4,0-6.56,1.69-6.56,4.8s1.84,4.37,9.46,6.77c9.24,3,14.53,6.77,14.53,15.81s-7.2,15.45-19.4,15.45c-8.47,0-14.54-3.11-18.56-7L257,62.17A17.67,17.67,0,0,0,269.22,67c4.8,0,7.77-2.26,7.77-6s-1.84-5.22-9-7.41c-10.93-3.38-14.95-7.9-14.95-15.17,0-8.61,7.48-14.11,17.64-14.11C278.18,24.35,283.34,26.54,287.64,30.63Z"/></svg>