<?xml version="1.0" standalone="no"?>
<!DOCTYPE svg PUBLIC "-//W3C//DTD SVG 20010904//EN"
 "http://www.w3.org/TR/2001/REC-SVG-20010904/DTD/svg10.dtd">
<svg version="1.0" xmlns="http://www.w3.org/2000/svg"
 width="800.000000pt" height="800.000000pt" viewBox="0 0 800.000000 800.000000"
 preserveAspectRatio="xMidYMid meet">
<metadata>
Created by potrace 1.11, written by Peter Selinger 2001-2013
</metadata>
<g transform="translate(0.000000,800.000000) scale(0.100000,-0.100000)"
fill="#000000" stroke="none">
<path d="M350 5227 c-36 -12 -85 -34 -110 -49 -107 -63 -198 -190 -229 -318
-7 -30 -11 -379 -11 -1078 l0 -1033 1057 3 1058 3 56 23 c116 46 206 125 264
227 67 120 64 70 65 1213 l0 1032 -1042 0 -1043 -1 -65 -22z m729 -654 c11
-42 140 -624 147 -663 3 -14 10 -47 17 -74 l13 -49 23 109 c12 60 35 172 51
249 16 77 43 205 60 285 16 80 30 153 30 163 0 15 17 17 185 17 102 0 185 -3
186 -7 0 -5 2 -16 4 -25 2 -10 6 -63 10 -118 4 -55 9 -120 11 -143 2 -23 6
-82 9 -132 3 -49 7 -115 10 -145 7 -81 13 -154 20 -250 3 -47 8 -110 10 -140
3 -30 7 -92 10 -138 3 -46 6 -86 6 -90 5 -30 -3 -32 -141 -32 l-140 0 -1 38
c-1 43 -4 103 -14 337 -5 94 -9 256 -9 362 -1 106 -4 189 -8 185 -3 -4 -16
-52 -28 -107 -12 -55 -23 -107 -25 -115 -7 -29 -42 -186 -85 -380 l-43 -195
-126 2 c-69 1 -131 2 -137 2 -9 1 -24 45 -25 76 0 2 -5 19 -10 37 -8 27 -62
253 -74 308 -28 130 -90 377 -97 384 -4 5 -5 -1 -3 -15 12 -57 6 -472 -10
-734 -2 -22 -3 -73 -4 -112 l-1 -73 -144 0 c-139 0 -145 1 -141 20 2 11 7 57
10 102 3 46 8 112 11 148 2 36 6 90 9 120 2 30 7 93 10 140 4 47 8 105 10 130
2 25 7 86 10 135 3 50 8 108 10 130 2 22 7 85 11 140 6 91 9 126 13 148 0 4
82 7 181 7 l179 0 10 -37z"/>
<path d="M3115 5231 c-155 -44 -273 -153 -338 -312 l-22 -54 -3 -1058 -3
-1057 1040 0 c920 0 1045 2 1092 16 179 53 308 185 353 361 14 54 16 186 16
1092 l0 1031 -1037 -1 c-951 0 -1043 -2 -1098 -18z m446 -638 c0 -10 2 -25 4
-34 1 -8 6 -42 9 -75 7 -59 53 -439 61 -504 20 -154 27 -214 32 -270 11 -120
12 -114 67 210 25 151 48 289 51 305 8 44 23 135 29 175 3 19 8 46 11 60 3 14
7 42 10 63 3 21 8 49 11 63 l6 24 154 0 c85 0 153 -3 152 -7 -2 -9 4 -52 32
-223 10 -63 21 -135 25 -160 3 -25 8 -56 10 -70 3 -14 7 -41 10 -60 11 -65 16
-95 25 -150 11 -69 20 -125 26 -170 6 -52 23 -143 27 -146 2 -2 16 90 31 204
16 114 30 214 31 222 1 8 6 38 9 65 4 28 10 66 12 85 3 19 7 46 10 60 4 24 14
95 19 135 1 11 8 64 15 118 l13 97 139 0 c76 0 138 -1 138 -3 0 -2 -4 -28 -10
-58 -5 -30 -12 -67 -15 -84 -2 -16 -7 -39 -9 -50 -2 -11 -7 -42 -10 -70 -4
-27 -11 -68 -16 -90 -5 -22 -11 -60 -15 -85 -3 -25 -15 -94 -25 -155 -10 -60
-21 -126 -24 -145 -3 -19 -7 -44 -10 -55 -2 -11 -19 -111 -37 -222 l-33 -203
-187 0 -187 0 -6 28 c-3 15 -12 70 -20 122 -8 52 -26 163 -40 245 -14 83 -27
168 -31 190 -3 23 -8 52 -10 65 -8 36 -26 158 -32 205 -6 59 -19 63 -28 10 -3
-26 -8 -55 -10 -65 -2 -9 -6 -33 -9 -51 -3 -19 -8 -51 -11 -73 -4 -21 -9 -48
-11 -60 -4 -23 -8 -45 -54 -311 -17 -99 -33 -191 -35 -205 -3 -14 -8 -42 -11
-62 l-7 -38 -183 0 c-101 0 -184 2 -184 5 0 3 -27 167 -60 365 -66 397 -66
396 -75 460 -3 25 -12 79 -20 120 -8 41 -17 93 -20 115 -8 57 -15 96 -21 128
l-6 27 146 0 c132 0 146 -2 147 -17z"/>
<path d="M5870 5234 c-171 -46 -308 -185 -354 -359 -14 -53 -16 -189 -16
-1093 l0 -1032 1037 0 c985 0 1041 1 1100 19 178 54 301 182 349 366 11 40 14
259 14 1083 l0 1032 -1037 -1 c-880 0 -1046 -3 -1093 -15z m1110 -623 c70 -25
127 -56 178 -99 l32 -27 -26 -30 c-14 -16 -44 -51 -66 -78 -39 -45 -42 -47
-62 -32 -59 44 -147 77 -220 82 -63 5 -81 3 -120 -17 -26 -12 -50 -29 -55 -38
-16 -31 -19 -78 -6 -109 16 -39 59 -65 170 -103 50 -17 97 -34 105 -37 8 -4
17 -7 20 -8 115 -40 222 -122 258 -198 11 -24 23 -65 27 -92 4 -28 9 -57 10
-65 2 -8 -1 -41 -6 -73 -23 -141 -116 -245 -270 -298 -98 -34 -288 -36 -401
-5 -45 12 -99 31 -118 41 -44 22 -150 96 -150 104 0 7 31 43 96 113 31 34 51
48 59 42 100 -77 184 -108 295 -107 127 0 196 54 193 150 -3 85 -51 126 -208
177 -284 93 -392 202 -386 391 4 161 111 280 293 329 81 22 275 15 358 -13z"/>
</g>
</svg>
